<svg xmlns="http://www.w3.org/2000/svg" id="Layer_1" data-name="Layer 1" viewBox="0 0 155.54 176.57"><defs><style>.cls-1,.cls-7{fill:#393839;}.cls-1,.cls-2{fill-rule:evenodd;}.cls-2{fill:#707070;}.cls-3{opacity:0.9;}.cls-4{fill:#fff;}.cls-5{fill:#efc519;}.cls-6{fill:#707070;}.cls-8{fill:#efc619;}</style></defs><title>sticker_print_citizen</title><path class="cls-1" d="M60.36,182.7c-0.26-3.24,0-7.05,0-10.44V110c0-3.38-.32-7.36.45-9.8a9.74,9.74,0,0,1,4.81-5.58C72,90.86,79,86.74,85.33,83.2c8.9-5,17.29-10.11,26.28-15.21,6.66-3.77,13-7.56,19.75-11.44,2.08-1.2,4.46-2.7,7.9-2.27a9.92,9.92,0,0,1,3.81,1.41c16.48,9.54,32.82,18.8,49.34,28.46,5.38,3.15,10.92,6.39,16.43,9.53a27.3,27.3,0,0,1,3.22,2,9.37,9.37,0,0,1,3.63,6.72c0.13,1.66,0,3.41,0,5.13v67.45c0,3.35.35,7.41-.41,9.85a9.74,9.74,0,0,1-4.81,5.58c-22,12.66-43.78,25.34-65.77,38-2.12,1.22-4.38,2.71-7.85,2.31-2.93-.33-5-2-7.13-3.27-20.91-12-41.44-23.95-62.5-36.09a28.78,28.78,0,0,1-3.22-2A9.26,9.26,0,0,1,60.36,182.7Z" transform="translate(-60.23 -54.21)"/><path class="cls-2" d="M209,107a8.56,8.56,0,0,0-3.32-6.14,25,25,0,0,0-2.95-1.79c-5-2.87-10.1-5.84-15-8.71-15.1-8.83-30-17.29-45.1-26a9.07,9.07,0,0,0-3.49-1.29c-3.14-.39-5.32,1-7.22,2.08-6.14,3.54-12,7-18,10.46-8.22,4.65-15.89,9.33-24,13.9-5.76,3.23-12.15,7-18,10.41a8.91,8.91,0,0,0-4.4,5.1c-0.71,2.23-.42,5.87-0.42,9v44.82H209v-47.1C209,110.15,209.13,108.55,209,107Z" transform="translate(-60.23 -54.21)"/><path class="cls-1" d="M174.41,158.82a2.74,2.74,0,0,1-2.31-1.76c-0.37-1.1-1.08-2.37-2.4-2.37H106.29c-1.33,0-2,1.27-2.4,2.37a2.74,2.74,0,0,1-2.31,1.76H63.15v4H212.84v-4H174.41Z" transform="translate(-60.23 -54.21)"/><g class="cls-3"><path class="cls-4" d="M109.07,137v-0.57c0-5.85,2.17-8.16,4.88-8.16a4,4,0,0,1,1.9.38v3a3.06,3.06,0,0,0-1.62-.55c-1.29,0-2.21,1.14-2.21,5.31v0.62c0,4.4.93,5.31,2.26,5.31a3.28,3.28,0,0,0,1.62-.52v2.86a4,4,0,0,1-2.14.5C111.09,145.21,109.07,142.86,109.07,137Z" transform="translate(-60.23 -54.21)"/><path class="cls-4" d="M117.4,128.43h2.9v16.66h-2.9V128.43Z" transform="translate(-60.23 -54.21)"/><path class="cls-4" d="M123.61,131.19h-2v-2.76h7v2.76h-2v13.9h-2.9v-13.9Z" transform="translate(-60.23 -54.21)"/><path class="cls-4" d="M129.82,128.43h2.9v16.66h-2.9V128.43Z" transform="translate(-60.23 -54.21)"/><path class="cls-4" d="M134.18,142.79L138,131.17h-3.69v-2.74h6.88v2.31l-3.83,11.61h3.83v2.74h-7v-2.31Z" transform="translate(-60.23 -54.21)"/><path class="cls-4" d="M142.58,128.43H149v2.76h-3.47v4.14h3.07v2.76h-3.07v4.24H149v2.76h-6.45V128.43Z" transform="translate(-60.23 -54.21)"/><path class="cls-4" d="M150.44,128.43h2.71l2.93,8.43v-8.43h2.83v16.66h-2.57l-3.07-8.83v8.83h-2.83V128.43Z" transform="translate(-60.23 -54.21)"/><path class="cls-4" d="M160.27,144.52v-3a5.36,5.36,0,0,0,2.62.93,1.37,1.37,0,0,0,1.55-1.43v0c0-.76-0.24-1.33-1.62-2.9-2-2.24-2.78-3.31-2.78-5.33v0a4,4,0,0,1,4-4.36,5.25,5.25,0,0,1,2.57.52v3a4.12,4.12,0,0,0-2.21-.76,1.41,1.41,0,0,0-1.5,1.43v0c0,0.79.24,1.07,1.62,2.67,2.29,2.64,2.79,3.67,2.79,5.57v0a4.11,4.11,0,0,1-4.12,4.36A6.66,6.66,0,0,1,160.27,144.52Z" transform="translate(-60.23 -54.21)"/></g><g class="cls-3"><path class="cls-4" d="M112.47,123.38v-1.84a2.55,2.55,0,0,0,.88.18,0.92,0.92,0,0,0,1-1.1v-7.85h1.89v8c0,1.89-1,2.78-2.56,2.78A5,5,0,0,1,112.47,123.38Z" transform="translate(-60.23 -54.21)"/><path class="cls-4" d="M118.69,112.74h2l2,10.71h-1.86l-0.35-2.12H118.8l-0.33,2.12h-1.8Zm1.52,6.91-0.56-3.52-0.58,3.52h1.14Z" transform="translate(-60.23 -54.21)"/><path class="cls-4" d="M122.58,112.77h1.89l1,7,1-7h1.83l-1.91,10.71h-1.92Z" transform="translate(-60.23 -54.21)"/><path class="cls-4" d="M130.07,112.74h2l2,10.71h-1.86l-0.35-2.12h-1.69l-0.34,2.12H128Zm1.52,6.91L131,116.12l-0.58,3.52h1.14Z" transform="translate(-60.23 -54.21)"/><path class="cls-4" d="M134.42,123.08v-1.94a3.44,3.44,0,0,0,1.68.6,0.88,0.88,0,0,0,1-.92v0c0-.49-0.15-0.85-1-1.86-1.27-1.43-1.78-2.12-1.78-3.42v0a2.57,2.57,0,0,1,2.59-2.79,3.35,3.35,0,0,1,1.65.34V115a2.64,2.64,0,0,0-1.42-.49,0.9,0.9,0,0,0-1,.92v0c0,0.5.15,0.69,1,1.71,1.46,1.69,1.78,2.35,1.78,3.57v0a2.63,2.63,0,0,1-2.64,2.79A4.28,4.28,0,0,1,134.42,123.08Z" transform="translate(-60.23 -54.21)"/><path class="cls-4" d="M139.34,118.29v-0.36c0-3.75,1.39-5.23,3.13-5.23a2.57,2.57,0,0,1,1.22.24v1.92a2,2,0,0,0-1-.35c-0.82,0-1.42.73-1.42,3.4v0.4c0,2.82.59,3.4,1.45,3.4a2.11,2.11,0,0,0,1-.34v1.83a2.58,2.58,0,0,1-1.37.32C140.64,123.52,139.34,122,139.34,118.29Z" transform="translate(-60.23 -54.21)"/><path class="cls-4" d="M144.65,112.77h1.92c1.91,0,3.29,1,3.29,3.4v0.14a3.33,3.33,0,0,1-1.25,2.81l1.43,4.33h-2l-1.2-3.72h-0.35v3.72h-1.86V112.77Zm2,5.28c0.81,0,1.4-.47,1.4-1.72V116.2c0-1.34-.64-1.69-1.45-1.69h0V118h0.09Z" transform="translate(-60.23 -54.21)"/><path class="cls-4" d="M150.75,112.77h1.86v10.67h-1.86V112.77Z" transform="translate(-60.23 -54.21)"/><path class="cls-4" d="M153.74,112.77h1.66c2,0,3.45,1.1,3.45,3.6v0c0,2.41-1.34,3.55-3.23,3.69h0v3.36h-1.86V112.77Zm1.88,5.6c0.78,0,1.37-.61,1.37-1.91v0c0-1.36-.52-1.94-1.33-1.94H155.6v3.87h0Z" transform="translate(-60.23 -54.21)"/><path class="cls-4" d="M160.37,114.54h-1.31v-1.77h4.48v1.77h-1.31v8.91h-1.86v-8.91Z" transform="translate(-60.23 -54.21)"/></g><path class="cls-4" d="M112.31,158.2h0.34l1,3.06,1-3.05h0.43l-1.31,3.69h-0.35l-1-3-1,3h-0.35l-1.31-3.69h0.45l1,3.05Z" transform="translate(-60.23 -54.21)"/><path class="cls-4" d="M120.86,161.94a1.9,1.9,0,1,1,1.88-1.9A1.84,1.84,0,0,1,120.86,161.94Zm0-3.41a1.44,1.44,0,0,0-1.44,1.51,1.46,1.46,0,0,0,1.45,1.52,1.44,1.44,0,0,0,1.44-1.51A1.46,1.46,0,0,0,120.86,158.53Z" transform="translate(-60.23 -54.21)"/><path class="cls-4" d="M129.6,161.88l-1.06-1.42h-1v1.42h-0.41v-3.67h1.58a1.15,1.15,0,0,1,1.33,1.09,1.08,1.08,0,0,1-1,1.07l1.13,1.5H129.6Zm-1-3.28h-1.13v1.49h1.13a0.81,0.81,0,0,0,.94-0.76A0.78,0.78,0,0,0,128.62,158.6Z" transform="translate(-60.23 -54.21)"/><path class="cls-4" d="M137.44,161.88h-0.52l-1.41-1.78-0.78.79v1h-0.41v-3.67h0.41v2.19l2.11-2.19h0.53l-1.57,1.6Z" transform="translate(-60.23 -54.21)"/><path class="cls-4" d="M142.81,159.85c0.82,0.18,1.19.48,1.19,1a1.1,1.1,0,0,1-1.25,1,2.15,2.15,0,0,1-1.5-.59l0.26-.3a1.75,1.75,0,0,0,1.26.52,0.7,0.7,0,0,0,.82-0.63c0-.35-0.18-0.54-1-0.7s-1.23-.46-1.23-1.06a1.08,1.08,0,0,1,1.2-1,1.91,1.91,0,0,1,1.29.45l-0.24.32a1.61,1.61,0,0,0-1.06-.4,0.68,0.68,0,0,0-.78.6C141.81,159.48,142,159.67,142.81,159.85Z" transform="translate(-60.23 -54.21)"/><path class="cls-4" d="M148.72,160.23v1.65h-0.41v-3.67h0.41v1.63h2.12v-1.63h0.41v3.67h-0.41v-1.65h-2.12Z" transform="translate(-60.23 -54.21)"/><path class="cls-4" d="M157.45,161.94a1.9,1.9,0,1,1,1.87-1.9A1.84,1.84,0,0,1,157.45,161.94Zm0-3.41A1.44,1.44,0,0,0,156,160a1.46,1.46,0,0,0,1.45,1.52,1.44,1.44,0,0,0,1.44-1.51A1.46,1.46,0,0,0,157.45,158.53Z" transform="translate(-60.23 -54.21)"/><path class="cls-4" d="M165,160.59h-0.89v1.29h-0.41v-3.67H165a1.19,1.19,0,0,1,1.37,1.17A1.26,1.26,0,0,1,165,160.59Zm0-2h-0.93v1.61H165a0.87,0.87,0,0,0,1-.81A0.83,0.83,0,0,0,165,158.6Z" transform="translate(-60.23 -54.21)"/><path class="cls-5" d="M160.83,182a1.63,1.63,0,0,0-.93-0.06,1.17,1.17,0,0,0-.69.34,0.68,0.68,0,0,0-.09.58,0.74,0.74,0,0,0,.49.53,5.51,5.51,0,0,0,1,.28l1.3,0.25a5.45,5.45,0,0,1,1.34.46,3.56,3.56,0,0,1,.71.46l-0.44-3.1-1.78,1.06a2.19,2.19,0,0,0-.93-0.79" transform="translate(-60.23 -54.21)"/><path class="cls-5" d="M163.38,180.64L163.15,179l-2,.29a3.73,3.73,0,0,1,.93.29,4,4,0,0,1,1.33,1" transform="translate(-60.23 -54.21)"/><rect class="cls-5" x="149.01" y="176.57" width="3.39" height="3.18" transform="translate(-95 -17.66) rotate(-12.41)"/><path class="cls-5" d="M163.34,190.7a5.13,5.13,0,0,1-1.65.66,5,5,0,0,1-2.78-.11,4.41,4.41,0,0,1-2.14-1.79l2.1-1.54a2.31,2.31,0,0,0,1.09.84,2,2,0,0,0,1.06.09,0.76,0.76,0,0,0,.72-1,0.77,0.77,0,0,0-.51-0.56,6,6,0,0,0-1-.3l-1.3-.25a4.83,4.83,0,0,1-1.34-.44,3.94,3.94,0,0,1-1.14-.87,3.28,3.28,0,0,1-.73-1.54,3.59,3.59,0,0,1,0-1.47,3.21,3.21,0,0,1,.58-1.31,4,4,0,0,1,1.18-1,4.53,4.53,0,0,1,.57-0.29l-12,1.71,1.26,8.89,2.43-.53,0.82,3.74-2.71.6,0.3,2.12,3.23-.46-0.42-1.36a1.61,1.61,0,0,0,1-.74,2.44,2.44,0,0,0,0-1.56l-2.29-10.42,3.65-.8,2.29,10.4a4.91,4.91,0,0,1-.4,3.75l-0.16.22,10.29-1.46-0.63-4.43-0.13.19a4.1,4.1,0,0,1-1.16,1.08" transform="translate(-60.23 -54.21)"/><path class="cls-6" d="M114.22,200.17a5.85,5.85,0,0,1-1.37-3.35l-0.78-5.48-0.84-.18,0.64,9.61,2.88-.19a2.47,2.47,0,0,1-.52-0.4" transform="translate(-60.23 -54.21)"/><path class="cls-6" d="M145.6,196.68l-3.83.54-1.16-8.16a2.73,2.73,0,0,0-.48-1.38,1,1,0,0,0-1-.31,1.11,1.11,0,0,0-.81.52,2.29,2.29,0,0,0-.14,1.5l1.16,8.16-4.2.6L134,190a2.61,2.61,0,0,0-.5-1.41,1,1,0,0,0-.87-0.28,1.3,1.3,0,0,0-.71.34,1.74,1.74,0,0,0-.45.7l1.3,9.16-4.2.6-1.88-13.21,3.73-.53,0.16,1.16h0.05a3.92,3.92,0,0,1,2.94-1.86,3.19,3.19,0,0,1,3.17,1.23,5,5,0,0,1,1.37-1.43,4.42,4.42,0,0,1,1.92-.72,3.65,3.65,0,0,1,3.14.83,6.39,6.39,0,0,1,1.6,3.88l0.48,3.34-0.68-10.2-21,1.39,0.2,1.42-3.81.54-0.24-1.71-9,.6,0.28,4.25,0.77-.19,0.58-3.65,2.88-.41,0.52,3.63,2.45-.35,0.44,3.06-2.45.35,0.84,5.92a1.4,1.4,0,0,0,.49,1,1.36,1.36,0,0,0,1.07.22,3.3,3.3,0,0,0,.86-0.25l0.65,2.56a6.35,6.35,0,0,1-.59.34l26.19-1.73ZM122,200l-1.88-13.21,4.2-.6,1.88,13.21Z" transform="translate(-60.23 -54.21)"/><circle class="cls-7" cx="77.77" cy="35.96" r="14.88"/><path class="cls-8" d="M129.93,82.19h1.78v0l-1.11,3.09h-0.86Zm2.24,0H134v0l-1.11,3.09H132Z" transform="translate(-60.23 -54.21)"/><path class="cls-8" d="M134.61,82.19h1.78v0l-1.11,3.09h-0.86Zm2.24,0h1.78v0l-1.11,3.09h-0.87Z" transform="translate(-60.23 -54.21)"/><path class="cls-8" d="M139.38,82.19h3v1.13h-1.54v5h1.54v1.12h-3V82.19Z" transform="translate(-60.23 -54.21)"/><path class="cls-8" d="M143.18,88.31h1.54v-5h-1.54V82.19h3v7.24h-3V88.31Z" transform="translate(-60.23 -54.21)"/><path class="cls-8" d="M131.39,98.31c0-.13,0-0.5,0-0.65,0-.66-0.35-0.86-1-0.86h-0.14v-1.1h0.14c0.68,0,1-.19,1-0.85,0-.15,0-0.51,0-0.65,0-1,.56-1.47,2.3-1.68l0.25,1c-0.93.21-1.08,0.45-1.08,1,0,0.15,0,.43,0,0.61a1.13,1.13,0,0,1-1,1.17,1.13,1.13,0,0,1,1,1.17c0,0.18,0,.46,0,0.61,0,0.54.15,0.78,1.08,1l-0.25,1C132,99.78,131.39,99.27,131.39,98.31Z" transform="translate(-60.23 -54.21)"/><path class="cls-8" d="M134.51,99c0.93-.21,1.08-0.45,1.08-1,0-.15,0-0.43,0-0.61a1.13,1.13,0,0,1,1-1.17,1.13,1.13,0,0,1-1-1.17c0-.18,0-0.46,0-0.61,0-.54-0.15-0.78-1.08-1l0.25-1c1.75,0.21,2.3.72,2.3,1.68,0,0.13,0,.5,0,0.65,0,0.66.35,0.85,1,.85h0.14v1.1h-0.14c-0.68,0-1,.19-1,0.86,0,0.15,0,.51,0,0.65,0,1-.56,1.47-2.3,1.68Z" transform="translate(-60.23 -54.21)"/><path class="cls-8" d="M138.88,96.26a4,4,0,0,1,2.55-3.74l0.69,1a3.07,3.07,0,0,0,0,5.41l-0.69,1A4,4,0,0,1,138.88,96.26Z" transform="translate(-60.23 -54.21)"/><path class="cls-8" d="M142.64,99a3.07,3.07,0,0,0,0-5.41l0.69-1a4,4,0,0,1,0,7.47Z" transform="translate(-60.23 -54.21)"/></svg>