<svg id="Layer_1" data-name="Layer 1" xmlns="http://www.w3.org/2000/svg" viewBox="0 0 155.54 176.57"><defs><style>.cls-1{fill:#f2f2f3;fill-rule:evenodd;}.cls-2{fill:#efc51a;}.cls-3{fill:#414042;}.cls-4{fill:#333;}.cls-5{fill:none;stroke:#58595b;stroke-width:0.5px;}</style></defs><title>sticker_print_timjs_02</title><path class="cls-1" d="M60.36,182.7c-0.26-3.24,0-7.05,0-10.44V110c0-3.38-.32-7.36.46-9.81a9.74,9.74,0,0,1,4.81-5.58C72,90.86,79,86.74,85.33,83.2c8.9-5,17.29-10.11,26.28-15.21,6.66-3.77,13-7.56,19.74-11.44,2.08-1.2,4.46-2.7,7.9-2.27a9.92,9.92,0,0,1,3.81,1.41c16.48,9.54,32.82,18.8,49.34,28.46,5.38,3.15,10.92,6.39,16.43,9.53a27.4,27.4,0,0,1,3.22,2,9.37,9.37,0,0,1,3.63,6.72c0.13,1.66,0,3.41,0,5.13v67.45c0,3.35.35,7.41-.41,9.85a9.74,9.74,0,0,1-4.81,5.58c-22,12.66-43.78,25.34-65.77,38-2.12,1.22-4.38,2.71-7.85,2.31-2.93-.33-5-2.05-7.13-3.27-20.91-12-41.44-23.95-62.5-36.09a28.69,28.69,0,0,1-3.22-2A9.25,9.25,0,0,1,60.36,182.7Z" transform="translate(-60.23 -54.21)"/><path class="cls-2" d="M185.88,128.91a3.38,3.38,0,0,0-1.93-.14,2.42,2.42,0,0,0-1.43.7,1.41,1.41,0,0,0-.2,1.21,1.53,1.53,0,0,0,1,1.09,11.2,11.2,0,0,0,2.11.59l2.7,0.53a11.37,11.37,0,0,1,2.8.95,7.62,7.62,0,0,1,1.48,1l-0.92-6.45-3.7,2.2a4.56,4.56,0,0,0-1.93-1.65" transform="translate(-60.23 -54.21)"/><path class="cls-2" d="M191.19,126.1l-0.47-3.31-4.23.6a7.72,7.72,0,0,1,1.93.62,8.46,8.46,0,0,1,2.77,2.1" transform="translate(-60.23 -54.21)"/><path class="cls-3" d="M88.89,166.75q-2.17-2.21-2.85-7l-1.62-11.41L82.66,148,84,168l6-.4a5.07,5.07,0,0,1-1.09-.84" transform="translate(-60.23 -54.21)"/><rect class="cls-2" x="161.28" y="117.63" width="7.05" height="6.63" transform="translate(-82.35 -16.03) rotate(-12.39)"/><path class="cls-2" d="M191.11,147a10.67,10.67,0,0,1-3.43,1.36,10.32,10.32,0,0,1-5.78-.22,9.15,9.15,0,0,1-4.46-3.73l4.37-3.2a4.83,4.83,0,0,0,2.26,1.75,4.17,4.17,0,0,0,2.22.2q1.86-.41,1.5-2a1.62,1.62,0,0,0-1.06-1.16,12.58,12.58,0,0,0-2.11-.63q-1.23-.27-2.7-0.53a10.17,10.17,0,0,1-2.79-.92,8.21,8.21,0,0,1-2.38-1.82,6.82,6.82,0,0,1-1.51-3.21,7.49,7.49,0,0,1-.06-3.06,6.7,6.7,0,0,1,1.21-2.73,8.31,8.31,0,0,1,2.45-2.17,10.13,10.13,0,0,1,1.18-.6l-25,3.55,2.63,18.5,5-1.11,1.71,7.78-5.63,1.24,0.63,4.42,6.72-1-0.87-2.84a3.37,3.37,0,0,0,2-1.53,5.08,5.08,0,0,0,0-3.25l-4.77-21.7,7.59-1.67,4.76,21.65q1.05,4.79-.82,7.79c-0.1.16-.21,0.31-0.32,0.47l21.41-3-1.31-9.21c-0.08.13-.17,0.27-0.27,0.4a8.52,8.52,0,0,1-2.41,2.24" transform="translate(-60.23 -54.21)"/><path class="cls-3" d="M154.2,159.48l-8,1.13-2.42-17a5.67,5.67,0,0,0-1-2.86,2.09,2.09,0,0,0-2-.64,2.3,2.3,0,0,0-1.68,1.08,4.77,4.77,0,0,0-.29,3.13l2.42,17-8.73,1.24-2.41-17a5.4,5.4,0,0,0-1-2.94,2,2,0,0,0-1.81-.59,2.71,2.71,0,0,0-1.49.7,3.63,3.63,0,0,0-.94,1.45l2.71,19.07-8.73,1.24L114.89,137l7.77-1.1,0.34,2.41h0.11a8.18,8.18,0,0,1,6.12-3.88,6.64,6.64,0,0,1,6.6,2.56,10.44,10.44,0,0,1,2.86-3,9.19,9.19,0,0,1,4-1.5,7.61,7.61,0,0,1,6.53,1.72q2.51,2.29,3.33,8.08l1,6.95-1.41-21.23L108.4,131l0.42,3L100.89,135l-0.51-3.55-18.73,1.24,0.59,8.84,1.6-.39L85,133.57l6-.85,1.07,7.55,5.09-.72,0.91,6.38-5.09.72L94.78,159a2.91,2.91,0,0,0,1,2,2.83,2.83,0,0,0,2.22.45,6.91,6.91,0,0,0,1.78-.53l1.36,5.33a13.68,13.68,0,0,1-1.22.72l54.51-3.61Zm-49.22,7L101.07,139l8.73-1.24,3.91,27.48Z" transform="translate(-60.23 -54.21)"/><path class="cls-4" d="M101.42,83.74l0.36-.21,1.65,2.84,1.78-1,0.19,0.33-2.14,1.25Z" transform="translate(-60.23 -54.21)"/><path class="cls-4" d="M109.69,79.37l-1.93,1.12,0.63,1.08,1.73-1,0.19,0.33-1.73,1L109.22,83l2-1.14,0.19,0.33-2.31,1.34-1.84-3.17L109.5,79Z" transform="translate(-60.23 -54.21)"/><path class="cls-4" d="M118,78.33l-0.38.22-0.86-.62-1.73,1L115.17,80l-0.37.21-0.41-4,0.34-.2Zm-3.23-1.84,0.21,2,1.44-.84Z" transform="translate(-60.23 -54.21)"/><path class="cls-4" d="M123.83,75l-1.63-.7-0.91.53L122,76l-0.36.21-1.84-3.17,1.36-.79a1.15,1.15,0,0,1,1.7.28,1.08,1.08,0,0,1-.32,1.43l1.73,0.73Zm-2.5-2.35-1,.57,0.75,1.29,1-.57a0.81,0.81,0,0,0,.43-1.13A0.78,0.78,0,0,0,121.33,72.61Z" transform="translate(-60.23 -54.21)"/><path class="cls-4" d="M128.4,68.06l0.35-.2L130.59,71l-0.29.17-3.56-1.41,1.51,2.6-0.35.2-1.84-3.17,0.33-.19,3.47,1.38Z" transform="translate(-60.23 -54.21)"/><path class="cls-4" d="M149.29,69.11l0.29,0.17-0.66,3.16,2.43-2.12,0.38,0.22-3,2.55-0.3-.18,0.61-3.08-2.36,2.07-0.3-.17,0.71-3.85,0.39,0.22-0.62,3.17Z" transform="translate(-60.23 -54.21)"/><path class="cls-4" d="M155.74,77.06l-0.21-1.77-0.91-.52L153.91,76l-0.36-.21,1.83-3.18,1.37,0.79a1.15,1.15,0,0,1,.6,1.61,1.07,1.07,0,0,1-1.4.43l0.23,1.86Zm0.79-3.33-1-.56-0.74,1.29,1,0.56a0.81,0.81,0,0,0,1.2-.19A0.78,0.78,0,0,0,156.53,73.73Z" transform="translate(-60.23 -54.21)"/><path class="cls-4" d="M162.05,76.47l-1.83,3.18-0.36-.21,1.83-3.18Z" transform="translate(-60.23 -54.21)"/><path class="cls-4" d="M165.35,82.6L165,82.39l1.64-2.85-1.07-.61,0.19-.33,2.5,1.44-0.19.33L167,79.75Z" transform="translate(-60.23 -54.21)"/><path class="cls-4" d="M174,83.8l-1.94-1.12-0.62,1.08,1.73,1-0.19.33-1.73-1-0.64,1.11,2,1.13-0.19.33-2.32-1.34,1.83-3.18,2.3,1.32Z" transform="translate(-60.23 -54.21)"/><path class="cls-4" d="M147.2,217.08l-0.36.21-1.65-2.84-1.06.62-0.19-.33,2.49-1.45,0.19,0.33-1.06.62Z" transform="translate(-60.23 -54.21)"/><path class="cls-4" d="M152.56,210.16l-1.93,1.12,0.63,1.08,1.73-1,0.19,0.33-1.73,1,0.64,1.11,2-1.14,0.19,0.33-2.31,1.35-1.84-3.17,2.29-1.33Z" transform="translate(-60.23 -54.21)"/><path class="cls-4" d="M160.9,209.12l-0.39.22-0.86-.62-1.73,1,0.11,1.06-0.37.21-0.41-4,0.33-.2Zm-3.23-1.84,0.21,2,1.45-.84Z" transform="translate(-60.23 -54.21)"/><path class="cls-4" d="M165.81,206.34a1.9,1.9,0,0,1-1.89-3.29,1.92,1.92,0,0,1,1.53-.22l-0.09.41a1.59,1.59,0,0,0-1.25.14,1.52,1.52,0,0,0,1.52,2.62,1.59,1.59,0,0,0,.76-1.05l0.37,0.09A1.91,1.91,0,0,1,165.81,206.34Z" transform="translate(-60.23 -54.21)"/><path class="cls-4" d="M170.19,201.81l0.83,1.43-0.36.21-1.84-3.17,0.36-.21,0.82,1.41,1.83-1.06L171,199l0.36-.21,1.84,3.17-0.36.21L172,200.75Z" transform="translate(-60.23 -54.21)"/><path class="cls-4" d="M104.63,200.81c0.62,0.56.8,1,.51,1.5a1.1,1.1,0,0,1-1.6.28,2.15,2.15,0,0,1-1-1.26l0.37-.13a1.74,1.74,0,0,0,.83,1.08,0.7,0.7,0,0,0,1-.14c0.17-.3.11-0.56-0.48-1.08s-0.84-1-.54-1.54a1.08,1.08,0,0,1,1.55-.27,1.91,1.91,0,0,1,.89,1l-0.37.16a1.61,1.61,0,0,0-.72-0.87,0.68,0.68,0,0,0-1,.13C104,200,104,200.25,104.63,200.81Z" transform="translate(-60.23 -54.21)"/><path class="cls-4" d="M110.16,204.84l-0.77-.45-0.65,1.12-0.36-.21,1.83-3.18,1.19,0.69a1.19,1.19,0,0,1,.61,1.7A1.27,1.27,0,0,1,110.16,204.84Zm1-1.71-0.8-.46-0.81,1.4,0.79,0.45a0.87,0.87,0,0,0,1.28-.2A0.83,0.83,0,0,0,111.19,203.13Z" transform="translate(-60.23 -54.21)"/><path class="cls-4" d="M118.35,207.25l-1.94-1.12-0.62,1.09,1.73,1-0.19.33-1.73-1L115,208.66l2,1.13-0.19.33-2.32-1.34,1.83-3.18,2.3,1.32Z" transform="translate(-60.23 -54.21)"/><path class="cls-4" d="M123.41,214l-0.39-.22,0.11-1.05-1.73-1-0.86.62-0.37-.21,3.29-2.37,0.34,0.19Zm0-3.72-1.66,1.2,1.45,0.83Z" transform="translate(-60.23 -54.21)"/><path class="cls-4" d="M129.75,217.61l-0.45-.26L129,215.11l-1.07.3-0.49.85-0.36-.21,1.83-3.18,0.36,0.21-1.09,1.9,2.92-.85,0.46,0.27-2.16.6Z" transform="translate(-60.23 -54.21)"/><circle class="cls-4" cx="77.68" cy="165.09" r="1.74"/><circle class="cls-4" cx="77.68" cy="11.46" r="1.74"/><path class="cls-5" d="M97.19,88.44c-1.58.91-3.18,1.83-4.79,2.73C86.95,94.23,80.9,97.8,75.31,101a8.43,8.43,0,0,0-4.16,4.83c-0.67,2.12-.39,5.56-0.39,8.49v53.91c0,2.93-.19,6.23,0,9a8,8,0,0,0,3.14,5.81,24.83,24.83,0,0,0,2.79,1.69l20.47,11.83" transform="translate(-60.23 -54.21)"/><path class="cls-5" d="M178.52,196.77q11.09-6.42,22.21-12.83a8.43,8.43,0,0,0,4.17-4.83c0.65-2.11.35-5.63,0.35-8.53V112.19c0-1.49.12-3,0-4.44a8.11,8.11,0,0,0-3.14-5.82,23.76,23.76,0,0,0-2.79-1.69c-4.77-2.72-9.57-5.53-14.22-8.25l-6.57-3.82" transform="translate(-60.23 -54.21)"/></svg>